# xmcd
#
# Track frame offsets:
#	150
#	11598
#	27567
#	41909
#	55018
#	68306
#	82321
#	96329
#	108606
#	123323
#	137511
#	149264
#	164651
#	177630
#	193174
#	207584
#	221306
#	234178
#	247495
#	274151
#
# Disc length: 3995 seconds
#
# Revision: 0
# Processed by: cddbd v1.5.2PL0 Copyright (c) Steve Scherf et al.
# Submitted via: EZCDAudioConverter 2.1.7.1
#
DISCID=370f9914
DTITLE=V/A - American Epic 5/5
DYEAR=1900
DGENRE=
TTITLE0=Robert Johnson - Cross Road Blues
TTITLE1=Lydia Mendoza - Mal Hombre
TTITLE2=Frenchy's String Band - Sunshine Special
TTITLE3=Robert Wilkins - Old Jim Kinnane's
TTITLE4=Amédée Ardoin and Dennis McGee - Les Blues De Voyage (Travel Blues)
TTITLE5=Stripling Brothers - The Lost Child
TTITLE6=Jaybird Coleman - I'm Gonna Cross The River Of Jordan Some Of These Da
TTITLE6=ys
TTITLE7=Aloha Serenaders featuring Sol K. Bright - Tomi Tomi
TTITLE8=Mississippi Sheiks - Sittin' On Top Of The World
TTITLE9=Richard 'Rabbit' Brown - James Alley Blues
TTITLE10=Big Chief Henry's Indian String Band - The Indian Tom Tom
TTITLE11=Prince Albert Hunt's Texas Ramblers - Blues In A Bottle
TTITLE12=Berthmost Montet and Joswell Dupuis - Je Me Suis En Alle
TTITLE13=Blind Willie Johnson - Dark Was The Night, Cold Was The Ground
TTITLE14=Sol Ho'opi'i and His Novelty Trio - E, Mama Ea
TTITLE15=Truett and George - Ghost Dance
TTITLE16=Roosevelt Graves and Brother - Woke Up This Morning (With My Mind On Je
TTITLE16=sus)
TTITLE17=Joseph Falcon - Allons À Lafayette
TTITLE18=Los Madrugadores - Corrido De Joaquín Murrieta (Part 1 and 2)
TTITLE19=Washington Phillips - Denomination Blues (Part 1 and 2)
EXTD=
EXTT0=
EXTT1=
EXTT2=
EXTT3=
EXTT4=
EXTT5=
EXTT6=
EXTT7=
EXTT8=
EXTT9=
EXTT10=
EXTT11=
EXTT12=
EXTT13=
EXTT14=
EXTT15=
EXTT16=
EXTT17=
EXTT18=
EXTT19=
PLAYORDER=
